<svg xmlns="http://www.w3.org/2000/svg" xmlns:svg="http://www.w3.org/2000/svg" id="svg2" width="64" height="64" version="1.1" viewBox="0 0 64 64"><metadata id="metadata4"/><g id="layer1" transform="translate(0,16)"><path style="color:#fff;font-style:normal;font-variant:normal;font-weight:400;font-stretch:normal;font-size:medium;line-height:normal;font-family:sans-serif;font-variant-ligatures:none;font-variant-position:normal;font-variant-caps:normal;font-variant-numeric:normal;font-variant-alternates:normal;font-feature-settings:normal;text-indent:0;text-align:start;text-decoration:none;text-decoration-line:none;text-decoration-style:solid;text-decoration-color:#fff;letter-spacing:normal;word-spacing:normal;text-transform:none;direction:ltr;block-progression:tb;writing-mode:lr-tb;baseline-shift:baseline;text-anchor:start;white-space:normal;shape-padding:0;clip-rule:nonzero;display:inline;overflow:visible;visibility:visible;opacity:1;isolation:auto;mix-blend-mode:normal;color-interpolation:sRGB;color-interpolation-filters:linearRGB;solid-color:#fff;solid-opacity:1;fill:#fff;fill-opacity:.86274511;fill-rule:nonzero;stroke:none;stroke-width:6;stroke-linecap:round;stroke-linejoin:round;stroke-miterlimit:4;stroke-dasharray:none;stroke-dashoffset:0;stroke-opacity:1;color-rendering:auto;image-rendering:auto;shape-rendering:auto;text-rendering:auto;enable-background:accumulate" id="path10888" d="M 8 12 C 6.3432144 12.000166 5.0001657 13.343214 5 15 L 5 49 C 5.0001657 50.656786 6.3432144 51.999834 8 52 L 28 52 L 28 38.65625 L 21.828125 44.828125 A 4.0004 4.0004 0 1 1 16.171875 39.171875 L 32 23.34375 L 47.828125 39.171875 A 4.0004 4.0004 0 1 1 42.171875 44.828125 L 36 38.65625 L 36 52 L 56 52 C 57.656786 51.999834 58.999834 50.656786 59 49 L 59 23 C 58.999834 21.343214 57.656786 20.000166 56 20 L 35.242188 20 L 28.121094 12.878906 C 27.558559 12.316297 26.795597 12.000153 26 12 L 8 12 z" transform="translate(0,-16)"/></g></svg>