<svg xmlns="http://www.w3.org/2000/svg" xmlns:svg="http://www.w3.org/2000/svg" id="svg2" width="64" height="64" version="1.1" viewBox="0 0 64 64"><metadata id="metadata4"/><g id="layer1" transform="translate(0,16)" style="display:inline"><path id="path4656" d="M 7.1015625 10.367188 C 6.2133457 10.375998 5.343087 10.756748 4.7832031 11.505859 C 4.4418649 11.962562 4.1196032 12.420679 3.8164062 12.876953 C 2.7123562 14.53841 2.7123492 17.461582 3.8164062 19.123047 C 8.6392861 26.38087 18.033493 34 32 34 C 45.966507 34 55.360714 26.38087 60.183594 19.123047 C 61.287651 17.461582 61.287644 14.53841 60.183594 12.876953 C 59.880397 12.42068 59.558136 11.962562 59.216797 11.505859 C 58.221448 10.174106 56.244933 10.004959 54.931641 11.025391 C 53.618345 12.045823 53.476598 13.862092 54.458984 15.203125 C 54.650557 15.464637 54.834798 15.725479 55.011719 15.986328 C 55.012819 15.993598 55.014972 15.9925 55.015625 16 C 55.015025 16.00747 55.012819 16.006372 55.011719 16.013672 C 51.066507 21.830412 43.640889 28 32 28 C 20.359111 28 12.933493 21.830412 8.9882812 16.013672 C 8.9871719 16.006394 8.985028 16.007513 8.984375 16 C 8.985028 15.9925 8.9871713 15.993598 8.9882812 15.986328 C 9.1652021 15.725479 9.349443 15.464636 9.5410156 15.203125 C 10.523402 13.862092 10.383608 12.045823 9.0703125 11.025391 C 8.4957468 10.578952 7.7923978 10.360335 7.1015625 10.367188 z" style="color:#fff;fill:#fff;fill-opacity:.86000001;stroke-linecap:round;stroke-linejoin:round;-inkscape-stroke:none"/></g></svg>