<svg xmlns="http://www.w3.org/2000/svg" xmlns:svg="http://www.w3.org/2000/svg" id="svg2" width="64" height="64" version="1.1" viewBox="0 0 64 64"><metadata id="metadata4"/><g id="layer1" transform="translate(0,16)"><path id="path8288" d="m 60.994564,27 c 0,15 -14,19 -22,19 -6,0 -14.596056,-1.972085 -18,-5 L 4.9154744,26.697145 C 2.9982923,25.239113 2.4384275,22.649887 3.5892841,20.563868 4.7401404,18.477849 7.2674583,17.500908 9.5759164,18.249721 L 20.994564,22 l 0,-27.9999995 c 0,-2.6866059 2.238687,-5.0000005 5,-5.0000005 2.761313,0 5,2.3133945 5,5.0000005 l 0,17.9999995 2e-4,-21.1354692 c 0,-2.6866068 2.238487,-4.8645308 4.9998,-4.8645308 2.761313,0 4.9998,2.177925 4.9998,4.8645311 L 40.994564,12 l 0,-17.9999995 c 0,-2.6866059 2.238687,-5.0000005 5,-5.0000005 2.761313,0 5,2.3133945 5,5.0000005 l 0,18.9999995 1.99e-4,-11.9999995 c 1.99e-4,-2.6866061 2.238686,-4.8645305 4.999999,-4.8645306 2.761314,-4e-7 4.999801,2.1779242 4.999802,4.8645307 z" style="opacity:1;fill:none;fill-opacity:.86274511;fill-rule:nonzero;stroke:#fff;stroke-width:4;stroke-linecap:round;stroke-linejoin:round;stroke-miterlimit:4;stroke-dasharray:none;stroke-dashoffset:0;stroke-opacity:.86274511"/><path style="opacity:1;fill:#fff;fill-opacity:.23529412;fill-rule:nonzero;stroke:none;stroke-width:4;stroke-linecap:round;stroke-linejoin:round;stroke-miterlimit:4;stroke-dasharray:none;stroke-dashoffset:0;stroke-opacity:1" id="path8309" d="M 35.994141 4 C 34.284465 4 32.994141 5.289564 32.994141 6.8652344 L 32.994141 10 L 32.994141 28 A 2.0002 2.0002 0 0 1 28.994141 28 L 28.994141 10 C 28.994141 8.42443 27.638403 7 25.994141 7 C 24.349878 7 22.994141 8.4244301 22.994141 10 L 22.994141 38 A 2.0002 2.0002 0 0 1 20.371094 39.900391 L 8.9589844 36.152344 L 8.9570312 36.152344 C 7.5422964 35.694462 6.0197174 36.296972 5.3398438 37.529297 C 4.6596518 38.762199 4.9685355 40.224483 6.1269531 41.105469 A 2.0002 2.0002 0 0 1 6.2441406 41.203125 L 22.324219 55.505859 C 23.562632 56.607467 26.371111 57.873774 29.527344 58.701172 C 32.683576 59.52857 36.213261 60 38.994141 60 C 42.660807 60 47.863713 59.029672 51.917969 56.439453 C 55.972225 53.849234 58.994141 49.877778 58.994141 43 L 58.994141 17 C 58.99414 15.42433 57.703818 14.134765 55.994141 14.134766 C 54.284465 14.134766 52.994257 15.424251 52.994141 17 L 52.994141 29 A 2.0002 2.0002 0 0 1 48.994141 29 L 48.994141 17 L 48.994141 10 C 48.994141 8.42443 47.638403 7 45.994141 7 C 44.349878 7 42.994141 8.4244301 42.994141 10 L 42.994141 28 A 2.0002 2.0002 0 0 1 38.994141 28 L 38.994141 10 L 38.994141 6.8652344 C 38.994141 5.289565 37.703816 4 35.994141 4 z" transform="translate(0,-16)"/></g></svg>