<svg xmlns="http://www.w3.org/2000/svg" xmlns:svg="http://www.w3.org/2000/svg" id="svg2" width="64" height="64" version="1.1" viewBox="0 0 64 64"><metadata id="metadata4"/><g id="layer1" transform="translate(0,16)"><g id="text6526" aria-label="U" style="font-size:70.6215px;line-height:1.25;font-family:Ubuntu;-inkscape-font-specification:Ubuntu;text-align:center;text-anchor:middle;fill:#fff;fill-opacity:.86;stroke-width:.827596"><path id="path32083" d="m 31.999999,36 q -4.802262,0 -8.333337,-1.483051 -3.531075,-1.483052 -5.790963,-4.025426 -2.259888,-2.612995 -3.389831,-6.14407 -1.059323,-3.531075 -1.059323,-7.627122 v -30.720352 h 6.850285 v 29.943516 q 0,7.344635 3.248589,10.663846 3.248589,3.31921 8.47458,3.31921 2.612995,0 4.73164,-0.776836 2.189267,-0.847458 3.74294,-2.542374 1.553673,-1.694916 2.401131,-4.307912 0.847458,-2.683616 0.847458,-6.355934 v -29.943516 h 6.850285 v 30.720352 q 0,4.096047 -1.129944,7.627122 -1.059322,3.531075 -3.389832,6.14407 -2.259888,2.542374 -5.790963,4.025426 Q 36.802261,36 31.999999,36 Z"/></g><path style="fill:#fff;fill-opacity:.86;fill-rule:evenodd;stroke-width:37.566;stroke-opacity:.86;paint-order:markers fill stroke" id="rect31869" width="6" height="60" x="40" y="-62" d="m 43,-62.000004 c 1.656881,0 3,1.343146 3,3 V -5 c 0,1.6568542 -1.343146,3 -3,3 -1.656881,0 -3,-1.3431458 -3,-3 v -54.000004 c 0,-1.656854 1.343146,-3 3,-3 z" transform="rotate(90)"/></g></svg>