<svg xmlns="http://www.w3.org/2000/svg" xmlns:svg="http://www.w3.org/2000/svg" id="svg2" width="64" height="64" version="1.1" viewBox="0 0 64 64"><metadata id="metadata4"/><g id="layer1" transform="translate(0,16)"><path style="color:#fff;font-style:normal;font-variant:normal;font-weight:400;font-stretch:normal;font-size:medium;line-height:normal;font-family:sans-serif;font-variant-ligatures:none;font-variant-position:normal;font-variant-caps:normal;font-variant-numeric:normal;font-variant-alternates:normal;font-feature-settings:normal;text-indent:0;text-align:start;text-decoration:none;text-decoration-line:none;text-decoration-style:solid;text-decoration-color:#fff;letter-spacing:normal;word-spacing:normal;text-transform:none;direction:ltr;block-progression:tb;writing-mode:lr-tb;baseline-shift:baseline;text-anchor:start;white-space:normal;shape-padding:0;clip-rule:nonzero;display:inline;overflow:visible;visibility:visible;opacity:1;isolation:auto;mix-blend-mode:normal;color-interpolation:sRGB;color-interpolation-filters:linearRGB;solid-color:#fff;solid-opacity:1;fill:#fff;fill-opacity:.86274511;fill-rule:evenodd;stroke:none;stroke-width:8;stroke-linecap:butt;stroke-linejoin:round;stroke-miterlimit:4;stroke-dasharray:none;stroke-dashoffset:0;stroke-opacity:1;color-rendering:auto;image-rendering:auto;shape-rendering:auto;text-rendering:auto;enable-background:accumulate" id="rect10347" d="m 4,14 c -2.2090475,2.21e-4 -3.99977912838,1.790952 -4,4 l 0,28 c 2.2087162e-4,2.209048 1.7909525,3.999779 4,4 l 37,0 c 2.209048,-2.21e-4 3.999779,-1.790952 4,-4 l 0,-8.529297 12.271484,11.453125 C 59.828401,51.307947 63.998236,49.495976 64,46 l 0,-28 c -3.65e-4,-2.25486 -1.86329,-4.063876 -4.117188,-3.998047 -0.972079,0.02876 -1.900394,0.41064 -2.611328,1.074219 L 45,26.529297 45,18 c -2.21e-4,-2.209048 -1.790952,-3.999779 -4,-4 z m 4,8 29,0 0,20 -29,0 z" transform="translate(0,-16)"/></g></svg>