<svg xmlns="http://www.w3.org/2000/svg" xmlns:svg="http://www.w3.org/2000/svg" id="svg2" width="64" height="64" version="1.1" viewBox="0 0 64 64"><metadata id="metadata4"/><g id="layer1" transform="translate(0,16)"><path style="color:#212121;font-style:normal;font-variant:normal;font-weight:400;font-stretch:normal;font-size:medium;line-height:normal;font-family:sans-serif;font-variant-ligatures:none;font-variant-position:normal;font-variant-caps:normal;font-variant-numeric:normal;font-variant-alternates:normal;font-feature-settings:normal;text-indent:0;text-align:start;text-decoration:none;text-decoration-line:none;text-decoration-style:solid;text-decoration-color:#212121;letter-spacing:normal;word-spacing:normal;text-transform:none;direction:ltr;block-progression:tb;writing-mode:lr-tb;baseline-shift:baseline;text-anchor:start;white-space:normal;shape-padding:0;clip-rule:nonzero;display:inline;overflow:visible;visibility:visible;opacity:1;isolation:auto;mix-blend-mode:normal;color-interpolation:sRGB;color-interpolation-filters:linearRGB;solid-color:#212121;solid-opacity:1;fill:#212121;fill-opacity:.86274511;fill-rule:evenodd;stroke:none;stroke-width:8;stroke-linecap:butt;stroke-linejoin:round;stroke-miterlimit:4;stroke-dasharray:none;stroke-dashoffset:0;stroke-opacity:1;color-rendering:auto;image-rendering:auto;shape-rendering:auto;text-rendering:auto;enable-background:accumulate" id="rect10131" d="M 27.039062 10 C 27.735198 11.25778 28.056641 12.642875 28.056641 14 C 28.056641 15.357125 27.735198 16.74222 27.039062 18 L 56 18 L 56 46 L 16 46 L 16 29.039062 C 14.74222 29.735198 13.357125 30.056641 12 30.056641 C 10.642875 30.056641 9.2577802 29.735198 8 29.039062 L 8 50 C 8.0002209 52.209048 9.7909525 53.999779 12 54 L 60 54 C 62.209048 53.999779 63.999779 52.209048 64 50 L 64 14 C 63.999779 11.790952 62.209048 10.000221 60 10 L 27.039062 10 z" transform="translate(0,-16)"/><path style="color:#212121;font-style:normal;font-variant:normal;font-weight:400;font-stretch:normal;font-size:medium;line-height:normal;font-family:sans-serif;font-variant-ligatures:none;font-variant-position:normal;font-variant-caps:normal;font-variant-numeric:normal;font-variant-alternates:normal;font-feature-settings:normal;text-indent:0;text-align:start;text-decoration:none;text-decoration-line:none;text-decoration-style:solid;text-decoration-color:#212121;letter-spacing:normal;word-spacing:normal;text-transform:none;direction:ltr;block-progression:tb;writing-mode:lr-tb;baseline-shift:baseline;text-anchor:start;white-space:normal;shape-padding:0;clip-rule:nonzero;display:inline;overflow:visible;visibility:visible;opacity:1;isolation:auto;mix-blend-mode:normal;color-interpolation:sRGB;color-interpolation-filters:linearRGB;solid-color:#212121;solid-opacity:1;fill:#212121;fill-opacity:.86274511;fill-rule:nonzero;stroke:none;stroke-width:8;stroke-linecap:round;stroke-linejoin:round;stroke-miterlimit:4;stroke-dasharray:none;stroke-dashoffset:0;stroke-opacity:1;color-rendering:auto;image-rendering:auto;shape-rendering:auto;text-rendering:auto;enable-background:accumulate" id="path10173" d="M 11.939453 1.9433594 A 4.0004 4.0004 0 0 0 8 6 L 8 10 L 4 10 A 4.0004 4.0004 0 1 0 4 18 L 8 18 L 8 22 A 4.0004 4.0004 0 1 0 16 22 L 16 18 L 20 18 A 4.0004 4.0004 0 1 0 20 10 L 16 10 L 16 6 A 4.0004 4.0004 0 0 0 11.939453 1.9433594 z" transform="translate(0,-16)"/><circle style="opacity:1;fill:#212121;fill-opacity:.86274511;fill-rule:nonzero;stroke:none;stroke-width:8;stroke-linecap:round;stroke-linejoin:round;stroke-miterlimit:4;stroke-dasharray:none;stroke-dashoffset:0;stroke-opacity:.23529412" id="path10188" cx="24" cy="16" r="4"/><circle id="circle10190" cx="48" cy="8" r="4" style="opacity:1;fill:#212121;fill-opacity:.86274511;fill-rule:nonzero;stroke:none;stroke-width:8;stroke-linecap:round;stroke-linejoin:round;stroke-miterlimit:4;stroke-dasharray:none;stroke-dashoffset:0;stroke-opacity:.23529412"/><circle style="opacity:1;fill:#212121;fill-opacity:.86274511;fill-rule:nonzero;stroke:none;stroke-width:6;stroke-linecap:round;stroke-linejoin:round;stroke-miterlimit:4;stroke-dasharray:none;stroke-dashoffset:0;stroke-opacity:.23529412" id="circle10192" cx="40" cy="24" r="3"/></g></svg>