<svg xmlns="http://www.w3.org/2000/svg" xmlns:svg="http://www.w3.org/2000/svg" id="svg2" width="64" height="64" version="1.1" viewBox="0 0 64 64"><metadata id="metadata4"/><g id="layer2" style="display:none;opacity:.267101"><path style="fill:#202020;stroke-width:2.31064" id="path1044" d="M 31.802029,1.9072648 52.62433,43.599226 37,39 l 0.06825,22.691874 -9.224564,-0.03438 -0.05748,-22.845966 -16.032343,4.278977 z"/></g><g id="layer1" transform="translate(0,16)"><path style="color:#212121;opacity:1;fill:#212121;stroke-linecap:round;stroke-linejoin:round;-inkscape-stroke:none;fill-opacity:.86000001" id="path9816" d="m 13.924307,-13.61249 c -1.020024,0.500897 -1.669522,1.535084 -1.677734,2.671428 l -0.301889,42.484219 c -0.01761,2.6969 3.254997,4.045816 5.142873,2.119809 l 9.646906,-9.851632 10.03443,20.430518 c 0.730538,1.487029 2.528113,2.100447 4.015288,1.370207 l 1.795164,-0.881693 1.795165,-0.881694 c 1.487029,-0.730538 2.100447,-2.528112 1.370207,-4.015287 L 35.710287,19.402867 49.404029,17.790761 c 2.678302,-0.316667 3.611353,-3.731189 1.46628,-5.365888 L 17.064067,-13.307169 c -0.904314,-0.688159 -2.119805,-0.806357 -3.13976,-0.305321 z"/></g></svg>