<svg xmlns="http://www.w3.org/2000/svg" xmlns:svg="http://www.w3.org/2000/svg" id="svg2" width="64" height="64" version="1.1" viewBox="0 0 64 64"><metadata id="metadata4"/><g id="layer1" transform="translate(0,16)" style="display:inline"><path id="path3500" d="M 32,-2 C 18.033441,-2 8.6386755,5.6197606 3.8157844,12.877609 2.7117308,14.539072 2.7117346,17.460936 3.8157952,19.122407 8.6386895,26.380251 18.033451,34 32,34 45.966557,34 55.361321,26.380242 60.184213,19.122395 61.288268,17.460931 61.288264,14.539061 60.184202,12.877588 55.361307,5.6197464 45.966546,-2 32,-2 Z m 0,4 C 39.731986,2 46,8.2680135 46,16 46,23.731986 39.731986,30 32,30 24.268014,30 18,23.731986 18,16 18,8.2680135 24.268014,2 32,2 Z" class="UnoptimicedTransforms" style="fill:#212121;fill-opacity:.86;stroke-width:10;stroke-linecap:round;stroke-linejoin:round"/><circle style="fill:#212121;fill-opacity:.86;stroke-width:10;stroke-linecap:round;stroke-linejoin:round" id="path4005" cx="32" cy="16" r="10"/></g></svg>